# xmcd CD database file
#
# Track frame offsets:
#	183
#	12228
#	23625
#	34103
#	44750
#	55325
#	68225
#	81193
#	91360
#	107973
#	118268
#	129385
#	141360
#	150675
#	158765
#	168980
#	178778
#	190745
#	202005
#	215960
#
# Disc length: 3018 seconds
#
# Revision: 3
# Processed by: cddbd v1.5PL3 Copyright (c) Steve Scherf et al.
# Submitted via: CDex 1.51
#
DISCID=260bc814
DTITLE=Various Artist - Cruisin'
DYEAR=1900
DGENRE=
TTITLE0=Danny and the Juniors - At The Hop
TTITLE1=Johnny and the Hurrricans - Reveille Rock
TTITLE2=Fats Domino - I'm Walkin'
TTITLE3=Jimmy Rodgers - Kisses Sweeter Than Wine
TTITLE4=Frankie Avalon - Venus
TTITLE5=Lloyd Price - Stagger Lee
TTITLE6=Ray Peterson - Tell Laura I love Her
TTITLE7=Fats Domino - Aint That A Shame
TTITLE8=The Olympics - Hully Gully
TTITLE9=Carl Perkins - Blue Suede Shoes
TTITLE10=Fats Domino - Blueberry Hill
TTITLE11=Lloyd Price - Where Were You On Our Wedding Day
TTITLE12=Johnny and the Hurricanes - Red River Rock
TTITLE13=The Coasters - Yakety Yak
TTITLE14=Roy Orbison - Domino
TTITLE15=Johnny and the Hurricanes - Beatnik Fly
TTITLE16=The Crew Cuts - Sh-Boom
TTITLE17=Lloyd Price - Personality
TTITLE18=The Ink Spots - Whispering Grass
TTITLE19=Little Richard - Lucille
EXTD=Compilation Rock and Roll... Digitally Re-mastered Hits
EXTT0=
EXTT1=
EXTT2=
EXTT3=
EXTT4=
EXTT5=
EXTT6=
EXTT7=
EXTT8=
EXTT9=
EXTT10=
EXTT11=
EXTT12=
EXTT13=
EXTT14=
EXTT15=
EXTT16=
EXTT17=
EXTT18=
EXTT19=
PLAYORDER=
